<svg id="Calque_1" data-name="Calque 1" xmlns="http://www.w3.org/2000/svg" viewBox="0 0 353.63 58.26"><title>task_flow_logo</title><path d="M57.7,148.3l-1.24,6.93H42.07l-8.32,47.13H24.88l8.32-47.13H18.73L20,148.3Z" transform="translate(-18.73 -144.8)" fill="#1f2937"/><path d="M62.64,169.31a25.15,25.15,0,0,1,8.68-7.74,22.37,22.37,0,0,1,10.73-2.77,16.7,16.7,0,0,1,8.48,2,13.65,13.65,0,0,1,5.13,4.94l1.09-6.23h9l-7.55,42.86H89.21L90.37,196a22.73,22.73,0,0,1-7,5,21.09,21.09,0,0,1-9.21,2,16.92,16.92,0,0,1-8.6-2.18,15.34,15.34,0,0,1-5.91-6.19,19.21,19.21,0,0,1-2.14-9.21,25.07,25.07,0,0,1,.47-4.75A27.9,27.9,0,0,1,62.64,169.31Zm30.69,8.4a10.93,10.93,0,0,0-3.07-8.21,10.54,10.54,0,0,0-7.66-3,14.42,14.42,0,0,0-6.69,1.68,16.29,16.29,0,0,0-5.68,4.9A17.65,17.65,0,0,0,67,180.74a15.35,15.35,0,0,0-.31,3.19,11.28,11.28,0,0,0,3.07,8.36,10.39,10.39,0,0,0,7.66,3.07,14.28,14.28,0,0,0,6.69-1.71,16.52,16.52,0,0,0,5.68-5A18.34,18.34,0,0,0,93,180.9,15.35,15.35,0,0,0,93.33,177.71Z" transform="translate(-18.73 -144.8)" fill="#1f2937"/><path d="M117.52,201.55a13.54,13.54,0,0,1-5.75-4.28,10.13,10.13,0,0,1-2.11-6.34,13.82,13.82,0,0,1,.16-1.71h8.63a5.56,5.56,0,0,0,1.79,4.9,8.37,8.37,0,0,0,5.92,1.94,12.69,12.69,0,0,0,6.14-1.32,4.2,4.2,0,0,0,2.41-3.89,4,4,0,0,0-2-3.5,33.41,33.41,0,0,0-6.34-2.95,60.69,60.69,0,0,1-6.69-3,13.76,13.76,0,0,1-4.43-3.85,9.74,9.74,0,0,1-1.87-6.1,10.63,10.63,0,0,1,2.14-6.58,13.92,13.92,0,0,1,6-4.43,23,23,0,0,1,8.83-1.6,20.31,20.31,0,0,1,8,1.52,12.8,12.8,0,0,1,5.52,4.28,10.59,10.59,0,0,1,2,6.34,13.11,13.11,0,0,1-.07,1.63h-8.4a5.5,5.5,0,0,0-1.76-4.9,8.46,8.46,0,0,0-5.87-1.87,9.45,9.45,0,0,0-5.4,1.4,4.39,4.39,0,0,0-2.07,3.82,4.46,4.46,0,0,0,2.1,3.85A34.07,34.07,0,0,0,130.9,178a53.54,53.54,0,0,1,6.46,2.95,14.14,14.14,0,0,1,4.28,3.74,9.3,9.3,0,0,1,1.78,5.83,10.25,10.25,0,0,1-2.29,6.65,14.37,14.37,0,0,1-6.34,4.36,26.07,26.07,0,0,1-9.18,1.52A21,21,0,0,1,117.52,201.55Z" transform="translate(-18.73 -144.8)" fill="#1f2937"/><path d="M172.05,181l16,21.39h-12l-12.61-18.43-3.26,18.43h-8.87l10.19-57.56h8.87l-5.92,33.37,18.83-18.67h12.29Z" transform="translate(-18.73 -144.8)" fill="#1f2937"/><path d="M241.11,151.89v9.86H220.52v10.66h15.41V182H220.52v20.44H208.21V151.89Z" transform="translate(-18.73 -144.8)" fill="#3a5faa"/><path d="M259.9,149.15v53.28H247.59V149.15Z" transform="translate(-18.73 -144.8)" fill="#3a5faa"/><path d="M276.5,200.49a18.42,18.42,0,0,1-7.42-7.2,21.51,21.51,0,0,1-2.7-10.94,21.28,21.28,0,0,1,2.74-10.91,18.54,18.54,0,0,1,7.48-7.24,23.81,23.81,0,0,1,21.32,0,18.54,18.54,0,0,1,7.48,7.24,23,23,0,0,1,0,21.81,18.74,18.74,0,0,1-7.56,7.24A22.6,22.6,0,0,1,287.12,203,22.15,22.15,0,0,1,276.5,200.49Zm16.63-10.73q2.47-2.59,2.48-7.41t-2.41-7.42a8.2,8.2,0,0,0-11.92,0c-1.58,1.71-2.37,4.19-2.37,7.46s.78,5.68,2.34,7.41a7.56,7.56,0,0,0,5.87,2.59A8,8,0,0,0,293.13,189.76Z" transform="translate(-18.73 -144.8)" fill="#3a5faa"/><path d="M372.36,162.26l-10.87,40.17H347.88l-6.33-26.06L335,202.43H321.46l-10.94-40.17h12.31L328.52,191l6.76-28.73h13l6.84,28.58,5.61-28.58Z" transform="translate(-18.73 -144.8)" fill="#3a5faa"/></svg>